<svg width="192" height="437" viewBox="0 0 192 437" fill="none" xmlns="http://www.w3.org/2000/svg">
<path d="M94.9091 31.6535L128.933 62.0443L137.645 64.3589L182.325 52.268C176.793 8.06786 121.352 -1.55413 94.9091 31.6535Z" fill="#FE303F"/>
<path d="M122.119 133.814L111.912 131.619C83.8538 205.653 53.2568 358.391 41.8681 423.111L50.121 425.964C68.2957 370.844 112.129 216.883 122.119 133.814Z" fill="#1D1E23"/>
<path d="M137.803 64.1166L129.229 62.0356M137.803 64.1166L123.417 123.384M137.803 64.1166L182.449 52.684C179.114 12.3972 125.744 -4.60577 94.8102 31.4121L129.229 62.0356M123.417 123.384L114.843 121.303M123.417 123.384C123.399 125.931 123.219 129.251 122.843 133.367M114.843 121.303C113.732 124.318 112.619 127.425 111.508 130.616M114.843 121.303L129.229 62.0356M122.843 133.367C119.638 168.44 102.227 261.27 50.0971 425.456L41.5234 423.375C52.7512 359.761 81.9284 215.506 111.508 130.616M122.843 133.367L111.508 130.616" stroke="black" stroke-width="2"/>
</svg>
