<svg width="430" height="430" viewBox="0 0 430 430" fill="none" xmlns="http://www.w3.org/2000/svg">
<path d="M59.9195 138.399C59.9195 138.399 55.127 71.9659 54.8957 59.1114C54.6645 46.2568 60.2745 40.7849 70.6891 39.1451C81.1037 37.5053 87.9365 41.564 89.5888 50.3714C91.241 59.1788 96.8596 162.297 97.1903 168.363C97.521 174.429 95.1091 181.801 84.4036 183.268C73.6981 184.735 65.7024 179.985 65.5038 172.041C65.3052 164.097 60.7439 67.4763 60.7439 67.4763C60.7218 64.2024 61.6653 55.9914 72.9689 55.173C84.2725 54.3547 84.0381 64.6828 84.0381 64.6828L90.7139 152.777" stroke="white" stroke-width="2"/>
<path d="M153.327 318.58C153.327 318.58 94.2518 348.866 82.5449 354.093C70.8379 359.32 63.5912 356.351 57.9568 347.514C52.3224 338.678 53.3385 330.877 60.7673 325.936C68.1961 320.996 160.616 275.641 166.053 272.973C171.489 270.305 179.212 269.622 184.803 278.791C190.394 287.959 189.205 297.088 181.992 300.369C174.779 303.65 87.904 345.507 87.904 345.507C84.9077 346.805 76.9971 349.151 71.7642 339.185C66.5312 329.219 76.1039 325.402 76.1039 325.402L154.315 284.948" stroke="white" stroke-width="2"/>
<path d="M203.327 160.58C203.327 160.58 144.252 190.866 132.545 196.093C120.838 201.32 113.591 198.351 107.957 189.514C102.322 180.678 103.339 172.877 110.767 167.936C118.196 162.996 210.616 117.641 216.053 114.973C221.489 112.305 229.212 111.622 234.803 120.791C240.394 129.959 239.205 139.088 231.992 142.369C224.779 145.65 137.904 187.507 137.904 187.507C134.908 188.805 126.997 191.151 121.764 181.185C116.531 171.219 126.104 167.402 126.104 167.402L204.315 126.948" stroke="white" stroke-width="2"/>
<path d="M218.894 109.896C218.894 109.896 161.394 76.7155 150.65 69.7197C139.906 62.7238 138.467 55.0258 142.831 45.4976C147.194 35.9695 154.298 32.5889 162.48 36.147C170.661 39.7051 258.914 92.7136 264.106 95.8316C269.297 98.9496 274.062 105.065 269.395 114.738C264.729 124.41 256.416 128.366 249.746 124.088C243.076 119.811 160.77 69.561 160.77 69.561C158.054 67.7488 151.79 62.3778 157.32 52.5738C162.851 42.7698 171.252 48.7382 171.252 48.7382L247.677 92.4725" stroke="white" stroke-width="2"/>
<path d="M183.508 321.467C183.508 321.467 184.795 387.902 184.352 400.724C183.909 413.545 178.045 418.731 167.603 419.869C157.162 421.007 150.581 416.637 149.399 407.781C148.217 398.925 148.029 295.89 148.017 289.829C148.006 283.768 150.79 276.537 161.512 275.585C172.233 274.633 179.935 279.747 179.717 287.673C179.498 295.6 178.975 392.108 178.975 392.108C178.826 395.372 177.458 403.51 166.176 403.787C154.893 404.065 155.667 393.783 155.667 393.783L153.641 305.671" stroke="white" stroke-width="2"/>
<path d="M249.119 320.882C249.119 320.882 303.788 282.835 314.722 276.072C325.656 269.308 333.225 271.337 339.954 279.453C346.682 287.57 346.682 295.518 339.954 301.436C333.225 307.354 247.437 364.847 242.391 368.229C237.344 371.611 229.775 373.302 223.046 364.847C216.318 356.392 216.318 347.092 223.046 342.864C229.775 338.637 310.517 285.372 310.517 285.372C313.32 283.681 320.861 280.298 327.338 289.599C333.814 298.899 324.815 303.972 324.815 303.972L252.483 354.701" stroke="white" stroke-width="2"/>
<path d="M356.034 288.528C356.034 288.528 315.126 236.166 307.784 225.645C300.442 215.124 302.02 207.456 309.688 200.278C317.356 193.101 325.243 192.645 331.504 199.019C337.765 205.393 399.763 287.688 403.41 292.529C407.057 297.37 409.171 304.825 401.168 312.022C393.164 319.219 383.934 319.751 379.351 313.281C374.768 306.81 317.256 229.308 317.256 229.308C315.416 226.608 311.626 219.277 320.483 212.284C329.34 205.29 334.893 213.978 334.893 213.978L389.403 283.234" stroke="white" stroke-width="2"/>
<path d="M60.3548 161.546C60.3548 161.546 76.7551 97.1547 80.587 84.9109C84.419 72.6672 91.4501 69.2247 101.819 70.9002C112.187 72.5756 117.372 78.5368 116.16 87.3887C114.947 96.2407 87.7685 195.626 86.1698 201.473C84.5712 207.319 79.9668 213.552 69.3773 211.622C58.7879 209.693 52.7208 202.717 55.0362 195.134C57.3516 187.55 83.4833 94.6446 83.4833 94.6446C84.4941 91.5376 87.974 84.055 98.9248 86.7838C109.876 89.5127 106.399 99.2198 106.399 99.2198L84.9547 184.707" stroke="white" stroke-width="2"/>
<path d="M130.07 295.558C130.07 295.558 93.0992 240.346 86.5459 229.317C79.9925 218.288 82.1264 210.755 90.2984 204.157C98.4705 197.559 106.37 197.682 112.148 204.496C117.927 211.311 173.744 297.917 177.027 303.011C180.311 308.106 181.874 315.695 173.366 322.288C164.858 328.881 155.614 328.738 151.516 321.949C147.418 315.161 95.7246 233.662 95.7246 233.662C94.0873 230.835 90.8424 223.247 100.187 216.92C109.532 210.592 114.435 219.662 114.435 219.662L163.738 292.718" stroke="white" stroke-width="2"/>
<path d="M374.743 96.4049C374.743 96.4049 351.043 158.482 345.828 170.203C340.612 181.925 333.232 184.535 323.125 181.678C313.018 178.82 308.553 172.302 310.776 163.649C312.999 154.995 351.433 59.3968 353.694 53.7732C355.954 48.1496 361.245 42.4882 371.542 45.6231C381.84 48.758 387.064 56.3855 383.891 63.6524C380.719 70.9193 344.071 160.201 344.071 160.201C342.709 163.171 338.391 170.203 327.827 166.233C317.263 162.262 321.833 153.019 321.833 153.019L352.972 70.5676" stroke="white" stroke-width="2"/>
<path d="M220.119 92.3885C220.119 92.3885 274.788 54.7256 285.722 48.0304C296.656 41.3352 304.225 43.3435 310.954 51.3782C317.682 59.4129 317.682 67.28 310.954 73.1386C304.225 78.9972 218.437 135.909 213.391 139.257C208.344 142.605 200.775 144.279 194.046 135.909C187.318 127.54 187.318 118.334 194.046 114.149C200.775 109.964 281.517 57.2365 281.517 57.2365C284.32 55.5626 291.861 52.2146 298.338 61.4212C304.814 70.6277 295.815 75.6494 295.815 75.6494L223.483 125.866" stroke="white" stroke-width="2"/>
</svg>
