<svg width="687" height="231" viewBox="0 0 687 231" fill="none" xmlns="http://www.w3.org/2000/svg">
<rect x="115.5" y="115.5" width="114" height="114" stroke="black" stroke-width="3"/>
<path d="M199.304 133.07C196.884 133.07 194.684 134.39 193.694 136.7L176.534 175.53L157.724 136.7C156.404 134.28 154.534 133.07 152.114 133.07C148.924 133.07 146.174 135.82 146.174 139.01C146.174 140 146.394 141.1 147.054 142.2L170.154 188.07L170.044 188.4C167.294 194.01 163.774 196.32 156.734 196.32C155.414 196.32 154.314 196.21 153.544 196.21C150.354 196.21 148.044 198.52 148.044 201.38C148.044 203.69 149.364 205.45 151.564 206.22C153.434 206.88 155.744 207.21 158.494 207.21C169.164 207.21 176.534 202.15 181.484 191.7L204.364 142.2C205.024 140.99 205.244 140 205.244 139.12C205.244 135.82 202.604 133.07 199.304 133.07Z" fill="black"/>
<rect x="229.5" y="115.5" width="114" height="114" stroke="black" stroke-width="3"/>
<path d="M317.84 198.3L291.55 136.15C290.45 133.51 288.58 132.19 285.94 132.19C283.41 132.19 281.54 133.51 280.44 136.15L254.15 198.3C253.49 199.62 253.27 200.72 253.27 201.6C253.27 204.68 255.8 207.21 258.99 207.21C261.63 207.21 263.5 205.78 264.49 203.14L268.78 192.91H302.99L307.5 203.14C308.6 205.78 310.36 207.21 313 207.21C316.19 207.21 318.72 204.68 318.72 201.6C318.72 200.72 318.39 199.62 317.84 198.3ZM285.94 149.24L298.81 183.01H272.85L285.94 149.24Z" fill="black"/>
<rect x="343.5" y="115.5" width="114" height="114" stroke="black" stroke-width="3"/>
<path d="M420.884 133.4H388.434C385.024 133.4 382.384 135.93 382.384 139.45V145.28C382.384 176.52 377.324 192.69 366.434 196.43C364.014 197.31 362.474 199.18 362.474 201.71C362.474 204.68 364.784 206.88 367.754 206.88C369.404 206.88 370.834 206.44 372.704 205.45C386.564 199.95 393.604 179.6 393.824 143.85H415.164V201.27C415.164 204.68 417.694 207.21 420.994 207.21C424.404 207.21 426.824 204.68 426.824 201.27V139.45C426.824 135.93 424.294 133.4 420.884 133.4Z" fill="black"/>
<circle cx="79.5" cy="40.5" r="10.5" fill="#FE303F"/>
<rect x="457.5" y="115.5" width="114" height="114" stroke="black" stroke-width="3"/>
<path d="M478.653 132.19C475.353 132.19 472.823 134.72 472.823 138.13V199.95C472.823 203.47 475.463 206 478.873 206H502.083C517.593 206 527.493 196.54 527.493 183.12C527.493 169.81 517.593 160.24 502.083 160.24H484.483V138.13C484.483 134.72 482.063 132.19 478.653 132.19ZM547.293 207.21C550.703 207.21 553.123 204.68 553.123 201.27V138.13C553.123 134.72 550.703 132.19 547.293 132.19C543.883 132.19 541.463 134.72 541.463 138.13V201.27C541.463 204.68 543.883 207.21 547.293 207.21ZM502.083 170.58C510.773 170.58 515.503 175.86 515.503 183.12C515.503 190.38 510.773 195.66 502.083 195.66H484.483V170.58H502.083Z" fill="black"/>
<rect x="229.5" y="1.5" width="114" height="114" stroke="black" stroke-width="3"/>
<path d="M310.765 18.19C308.235 18.19 306.915 19.29 305.595 21.16L267.205 71.43V24.13C267.205 20.72 264.785 18.19 261.375 18.19C258.075 18.19 255.545 20.72 255.545 24.13V87.49C255.545 90.68 258.185 93.21 261.375 93.21C263.355 93.21 264.785 92.55 266.105 90.79L304.825 40.3V87.27C304.825 90.68 307.355 93.21 310.655 93.21C314.065 93.21 316.485 90.68 316.485 87.27V23.91C316.485 20.72 313.955 18.19 310.765 18.19Z" fill="black"/>
<rect x="115.5" y="1.5" width="114" height="114" stroke="black" stroke-width="3"/>
<path d="M154.895 94.21C158.195 94.21 160.725 91.68 160.725 88.27V64.95H175.465C190.095 64.95 200.105 55.82 200.105 42.62C200.105 29.31 190.205 20.4 175.465 20.4H155.115C151.595 20.4 149.065 22.93 149.065 26.45V88.27C149.065 91.68 151.595 94.21 154.895 94.21ZM160.725 54.61V30.74H175.355C183.275 30.74 188.115 35.36 188.115 42.73C188.115 50.1 183.275 54.61 175.355 54.61H160.725Z" fill="black"/>
<rect x="343.5" y="1.5" width="114" height="114" stroke="black" stroke-width="3"/>
<path d="M399.945 93.21C403.245 93.21 405.775 90.68 405.775 87.27V29.85H425.465C428.545 29.85 430.855 27.65 430.855 24.68C430.855 21.71 428.545 19.4 425.465 19.4H374.535C371.455 19.4 369.145 21.71 369.145 24.68C369.145 27.65 371.455 29.85 374.535 29.85H394.115V87.27C394.115 90.68 396.645 93.21 399.945 93.21Z" fill="black"/>
<rect x="1.5" y="1.5" width="114" height="114" stroke="#FE303F" stroke-width="3"/>
<path d="M50.209 48.9082V51H46.0562V48.9082C46.0562 47.0625 45.9741 45.0938 45.8101 43.002C45.646 40.9102 45.4102 38.7979 45.1025 36.665C44.8154 34.5322 44.4668 32.4199 44.0566 30.3281C43.667 28.2158 43.2363 26.2163 42.7646 24.3296C42.3135 22.4429 41.8315 20.71 41.3188 19.1309C40.8267 17.5518 40.3242 16.2188 39.8115 15.1318H36.4277C35.915 16.2393 35.4023 17.5825 34.8896 19.1616C34.3975 20.7407 33.9155 22.4736 33.4438 24.3604C32.9927 26.2266 32.562 28.2158 32.1519 30.3281C31.7622 32.4199 31.4238 34.5322 31.1367 36.665C30.8496 38.7979 30.624 40.9102 30.46 43.002C30.2959 45.0732 30.2139 47.042 30.2139 48.9082V51H26.061V48.9082C26.061 46.8779 26.1533 44.7144 26.3379 42.4175C26.543 40.1001 26.8096 37.7622 27.1377 35.4038C27.4863 33.0454 27.8862 30.7075 28.3374 28.3901C28.8091 26.0728 29.3115 23.8887 29.8447 21.8379C30.3779 19.7871 30.9419 17.9209 31.5366 16.2393C32.1313 14.5576 32.7363 13.1631 33.3516 12.0557L33.936 10.9482H42.334L42.9185 12.0557C43.5337 13.2041 44.1387 14.6499 44.7334 16.3931C45.3486 18.1362 45.9229 20.064 46.4561 22.1763C47.0098 24.2681 47.5122 26.4829 47.9634 28.8208C48.4146 31.1587 48.8042 33.5068 49.1323 35.8652C49.481 38.2031 49.7476 40.4897 49.9321 42.7251C50.1167 44.9604 50.209 47.0215 50.209 48.9082ZM33.29 38.7568H42.9492V42.5098H33.29V38.7568ZM26.1533 108V76.377H30.3062V93.8804C31.2905 92.9985 32.2852 91.9629 33.29 90.7734C34.2949 89.584 35.2998 88.3125 36.3047 86.959C37.3096 85.6055 38.2939 84.2007 39.2578 82.7446C40.2217 81.2886 41.1343 79.853 41.9956 78.438C42.8569 77.064 43.2876 75.6079 43.2876 74.0698C43.2876 73.4136 43.1851 72.9316 42.98 72.624C42.7954 72.2959 42.4058 72.1318 41.811 72.1318H26.061V67.9482H41.811C42.6108 67.9482 43.3491 68.0918 44.0259 68.3789C44.7231 68.6455 45.3179 69.0454 45.8101 69.5786C46.3228 70.0913 46.7227 70.7271 47.0098 71.4858C47.2969 72.2446 47.4404 73.106 47.4404 74.0698C47.4404 75.2388 47.2764 76.3667 46.9482 77.4536C46.6201 78.52 46.1382 79.5762 45.5024 80.6221C44.5591 82.1602 43.5542 83.7598 42.4878 85.4209C41.4214 87.0615 40.2832 88.6714 39.0732 90.2505C37.8838 91.8296 36.6123 93.3472 35.2588 94.8032C33.9258 96.2388 32.5107 97.5205 31.0137 98.6484L30.3062 99.2021V108H26.1533ZM73.1572 72.1318H66.2358V67.9482H84.2622V72.1318H77.3101V108H73.1572V72.1318Z" fill="white"/>
<rect x="571.5" y="115.5" width="114" height="114" stroke="#FE303F" stroke-width="3"/>
</svg>
