<svg width="164" height="158" viewBox="0 0 164 158" fill="none" xmlns="http://www.w3.org/2000/svg">
<path d="M55.8841 98.0114C55.8841 98.0114 77.3611 35.131 82.1561 23.2313C86.9511 11.3317 94.2341 8.46018 104.436 10.9562C114.639 13.4522 119.332 19.8074 117.419 28.5347C115.505 37.2619 80.496 134.167 78.4368 139.867C76.3776 145.568 71.2914 151.414 60.8893 148.647C50.4872 145.881 44.9949 138.444 47.907 131.069C50.8191 123.693 84.2679 33.1647 84.2679 33.1647C85.5229 30.1481 89.5878 22.9665 100.286 26.5589C110.985 30.1513 106.747 39.5507 106.747 39.5507L78.561 123.058" stroke="white" stroke-width="2"/>
</svg>
