<svg width="57" height="46" viewBox="0 0 57 46" fill="none" xmlns="http://www.w3.org/2000/svg">
<path d="M14.4768 22.7254C14.4768 22.7254 38.1523 5.81559 42.8874 2.80958C47.6225 -0.196424 50.9007 0.705265 53.8146 4.31267C56.7285 7.92007 56.7285 11.4522 53.8146 14.0826C50.9007 16.713 13.7483 42.2653 11.5629 43.7684C9.37749 45.2716 6.09935 46.0231 3.18543 42.2654C0.271518 38.5076 0.271527 34.3743 3.18543 32.4953C6.09934 30.6164 41.0662 6.9429 41.0662 6.9429C42.2804 6.19136 45.5463 4.68819 48.351 8.82175C51.1557 12.9553 47.2583 15.2099 47.2583 15.2099L15.9338 37.7561" stroke="black" stroke-width="2"/>
</svg>
