<svg width="74" height="73" viewBox="0 0 74 73" fill="none" xmlns="http://www.w3.org/2000/svg">
<path d="M26.5301 46.3283C26.5301 46.3283 32.4654 17.8421 33.9062 12.4118C35.3469 6.98152 38.3567 5.34011 42.9251 5.8735C47.4935 6.40689 49.8766 8.91502 49.5166 12.811C49.1566 16.7069 39.1794 60.7103 38.5925 63.2988C38.0057 65.8873 36.1113 68.7026 31.4414 68.0624C26.7715 67.4223 23.9829 64.4873 24.8499 61.1249C25.7168 57.7625 35.3606 16.6144 35.3606 16.6144C35.743 15.2357 37.1214 11.8951 41.9648 12.8781C46.8082 13.8612 45.4742 18.1748 45.4742 18.1748L37.7382 55.9873" stroke="black" stroke-width="2"/>
</svg>
