<svg width="72" height="75" viewBox="0 0 72 75" fill="none" xmlns="http://www.w3.org/2000/svg">
<path d="M27.6372 25.759C27.6372 25.759 55.3666 34.9931 60.6196 37.0618C65.8727 39.1305 67.186 42.323 66.1677 46.8168C65.1494 51.3106 62.3981 53.3952 58.5574 52.5828C54.7168 51.7704 11.9688 36.6997 9.45412 35.8132C6.93946 34.9268 4.33839 32.7099 5.47379 28.1274C6.60919 23.5448 9.82882 21.1055 13.0841 22.3614C16.3394 23.6172 56.2802 38.0232 56.2802 38.0232C57.6121 38.565 60.7912 40.3283 59.2959 45.044C57.8007 49.7597 53.648 47.9273 53.648 47.9273L16.8249 35.8121" stroke="#1D1E23" stroke-width="2"/>
</svg>
