<svg width="58" height="68" viewBox="0 0 58 68" fill="none" xmlns="http://www.w3.org/2000/svg">
<path d="M25.8083 48.0148C25.8083 48.0148 15.2373 20.7669 13.4808 15.4014C11.7243 10.0359 13.3459 6.98839 17.4566 4.90693C21.5674 2.82548 24.9277 3.61537 26.7512 7.09176C28.5747 10.5681 44.2276 53.1065 45.1485 55.6087C46.0693 58.111 46.0205 61.5282 41.7667 63.5761C37.5128 65.6239 33.5806 64.6996 32.472 61.3912C31.3634 58.0829 16.9887 18.1309 16.9887 18.1309C16.5566 16.7594 15.8875 13.1861 20.4734 11.3306C25.0593 9.47506 26.2961 13.8422 26.2961 13.8422L40.447 49.932" stroke="black" stroke-width="2"/>
</svg>
