<svg width="455" height="489" viewBox="0 0 455 489" fill="none" xmlns="http://www.w3.org/2000/svg">
<path d="M115.033 100.342C115.033 100.342 95.2046 96.2843 94.6231 103.693C94.0416 111.101 114.405 107.951 115.023 112.589C115.642 117.227 93.2066 115.529 94.0563 109.589C95.061 102.161 98.071 104.114 114.602 104.957" stroke="black" stroke-width="2"/>
<rect x="114.667" y="70.3398" width="249.389" height="342.698" rx="6" transform="rotate(2.24723 114.667 70.3398)" fill="#21886D"/>
<path d="M111.824 152.224C111.824 152.224 91.9961 148.166 91.4146 155.575C90.8331 162.983 111.196 159.832 111.815 164.471C112.434 169.109 89.9981 167.411 90.8478 161.471C91.8525 154.043 94.8625 155.996 111.393 156.839" stroke="black" stroke-width="2"/>
<path d="M109.647 215.335C109.647 215.335 89.8184 211.277 89.2369 218.686C88.6554 226.094 109.019 222.944 109.637 227.582C110.256 232.22 87.8204 230.522 88.67 224.582C89.6748 217.155 92.6848 219.107 109.216 219.95" stroke="black" stroke-width="2"/>
<path d="M108.023 271.121C108.023 271.121 88.1948 267.063 87.6133 274.471C87.0319 281.88 107.395 278.729 108.014 283.367C108.632 288.005 86.1969 286.308 87.0465 280.367C88.0512 272.94 91.0612 274.892 107.592 275.735" stroke="black" stroke-width="2"/>
<path d="M105.839 328.597C105.839 328.597 86.0108 324.539 85.4293 331.948C84.8478 339.356 105.211 336.205 105.83 340.844C106.448 345.482 84.0128 343.784 84.8624 337.844C85.8672 330.416 88.8772 332.369 105.408 333.212" stroke="black" stroke-width="2"/>
<g filter="url(#filter0_ii)">
<rect x="116.486" y="69" width="249.389" height="342.698" rx="6" transform="rotate(2.59005 116.486 69)" fill="#21886D"/>
</g>
<defs>
<filter id="filter0_ii" x="101" y="52.2461" width="264.621" height="387.125" filterUnits="userSpaceOnUse" color-interpolation-filters="sRGB">
<feFlood flood-opacity="0" result="BackgroundImageFix"/>
<feBlend mode="normal" in="SourceGraphic" in2="BackgroundImageFix" result="shape"/>
<feColorMatrix in="SourceAlpha" type="matrix" values="0 0 0 0 0 0 0 0 0 0 0 0 0 0 0 0 0 0 127 0" result="hardAlpha"/>
<feOffset dy="16.7539"/>
<feGaussianBlur stdDeviation="8.37693"/>
<feComposite in2="hardAlpha" operator="arithmetic" k2="-1" k3="1"/>
<feColorMatrix type="matrix" values="0 0 0 0 0.142126 0 0 0 0 0.585733 0 0 0 0 0.469448 0 0 0 1 0"/>
<feBlend mode="normal" in2="shape" result="effect1_innerShadow"/>
<feColorMatrix in="SourceAlpha" type="matrix" values="0 0 0 0 0 0 0 0 0 0 0 0 0 0 0 0 0 0 127 0" result="hardAlpha"/>
<feOffset dy="-16.7539"/>
<feGaussianBlur stdDeviation="8.37693"/>
<feComposite in2="hardAlpha" operator="arithmetic" k2="-1" k3="1"/>
<feColorMatrix type="matrix" values="0 0 0 0 0.113518 0 0 0 0 0.467833 0 0 0 0 0.374955 0 0 0 1 0"/>
<feBlend mode="normal" in2="effect1_innerShadow" result="effect2_innerShadow"/>
</filter>
</defs>
</svg>
