<svg width="35" height="184" viewBox="0 0 35 184" fill="none" xmlns="http://www.w3.org/2000/svg">
<rect x="11.1963" y="-32.5" width="12" height="134" fill="#21886D" stroke="black"/>
<mask id="path-2-inside-1" fill="white">
<path fill-rule="evenodd" clip-rule="evenodd" d="M34.6961 140.14V181.299H0V140.14V139.8H0.00326833C0.18451 130.376 7.88062 122.792 17.348 122.792C26.8154 122.792 34.5116 130.376 34.6928 139.8H34.6961V140.14Z"/>
</mask>
<path fill-rule="evenodd" clip-rule="evenodd" d="M34.6961 140.14V181.299H0V140.14V139.8H0.00326833C0.18451 130.376 7.88062 122.792 17.348 122.792C26.8154 122.792 34.5116 130.376 34.6928 139.8H34.6961V140.14Z" fill="#21886D"/>
<path d="M34.6961 181.299V182.299H35.6961V181.299H34.6961ZM0 181.299H-1V182.299H0V181.299ZM0 139.8V138.8H-1V139.8H0ZM0.00326833 139.8V140.8H0.984221L1.00308 139.819L0.00326833 139.8ZM34.6928 139.8L33.693 139.819L33.7118 140.8H34.6928V139.8ZM34.6961 139.8H35.6961V138.8H34.6961V139.8ZM33.6961 140.14V181.299H35.6961V140.14H33.6961ZM34.6961 180.299H0V182.299H34.6961V180.299ZM1 181.299V140.14H-1V181.299H1ZM1 140.14V139.8H-1V140.14H1ZM0 140.8H0.00326833V138.8H0V140.8ZM1.00308 139.819C1.17387 130.939 8.42647 123.792 17.348 123.792V121.792C7.33478 121.792 -0.80485 129.813 -0.996547 139.781L1.00308 139.819ZM17.348 123.792C26.2696 123.792 33.5222 130.939 33.693 139.819L35.6926 139.781C35.5009 129.813 27.3613 121.792 17.348 121.792V123.792ZM34.6928 140.8H34.6961V138.8H34.6928V140.8ZM33.6961 139.8V140.14H35.6961V139.8H33.6961Z" fill="black" mask="url(#path-2-inside-1)"/>
<rect x="13" y="172" width="12" height="11" fill="#21886D"/>
<path d="M11.6963 150L12.9963 183H24.6963V162.247" stroke="black"/>
<circle cx="17" cy="114" r="12" fill="#21886D"/>
<mask id="path-7-inside-2" fill="white">
<path fill-rule="evenodd" clip-rule="evenodd" d="M9.00718 122.792H24.8316C24.889 122.792 24.9459 122.794 25.0022 122.798C27.4168 120.616 28.934 117.459 28.934 113.948C28.934 110.786 27.7035 107.912 25.6953 105.777C25.6348 105.782 25.5736 105.784 25.512 105.784H9.18439C8.92084 105.784 8.66728 105.741 8.4303 105.662C6.35736 107.808 5.08203 110.729 5.08203 113.948C5.08203 117.456 6.59647 120.61 9.00718 122.792ZM7.71028 122.928C5.46398 120.602 4.08203 117.436 4.08203 113.948C4.08203 110.543 5.39894 107.445 7.55128 105.136C7.09076 104.702 6.80329 104.086 6.80329 103.403C6.80329 102.088 7.86935 101.022 9.18439 101.022H17.008H25.512C26.827 101.022 27.8931 102.088 27.8931 103.403C27.8931 104.268 27.4317 105.026 26.7416 105.443C28.7295 107.716 29.934 110.691 29.934 113.948C29.934 117.549 28.4618 120.805 26.0865 123.149C26.7626 123.569 27.2127 124.319 27.2127 125.173C27.2127 126.488 26.1467 127.554 24.8316 127.554H8.50408C7.18903 127.554 6.12298 126.488 6.12298 125.173C6.12298 124.136 6.78552 123.254 7.71028 122.928Z"/>
</mask>
<path fill-rule="evenodd" clip-rule="evenodd" d="M9.00718 122.792H24.8316C24.889 122.792 24.9459 122.794 25.0022 122.798C27.4168 120.616 28.934 117.459 28.934 113.948C28.934 110.786 27.7035 107.912 25.6953 105.777C25.6348 105.782 25.5736 105.784 25.512 105.784H9.18439C8.92084 105.784 8.66728 105.741 8.4303 105.662C6.35736 107.808 5.08203 110.729 5.08203 113.948C5.08203 117.456 6.59647 120.61 9.00718 122.792ZM7.71028 122.928C5.46398 120.602 4.08203 117.436 4.08203 113.948C4.08203 110.543 5.39894 107.445 7.55128 105.136C7.09076 104.702 6.80329 104.086 6.80329 103.403C6.80329 102.088 7.86935 101.022 9.18439 101.022H17.008H25.512C26.827 101.022 27.8931 102.088 27.8931 103.403C27.8931 104.268 27.4317 105.026 26.7416 105.443C28.7295 107.716 29.934 110.691 29.934 113.948C29.934 117.549 28.4618 120.805 26.0865 123.149C26.7626 123.569 27.2127 124.319 27.2127 125.173C27.2127 126.488 26.1467 127.554 24.8316 127.554H8.50408C7.18903 127.554 6.12298 126.488 6.12298 125.173C6.12298 124.136 6.78552 123.254 7.71028 122.928Z" fill="#21886D"/>
<path d="M9.00718 122.792L8.33609 123.533L8.6218 123.792H9.00718V122.792ZM25.0022 122.798L24.9316 123.796L25.3566 123.826L25.6727 123.54L25.0022 122.798ZM25.6953 105.777L26.4236 105.092L26.096 104.744L25.6194 104.78L25.6953 105.777ZM8.4303 105.662L8.74678 104.714L8.149 104.514L7.71113 104.967L8.4303 105.662ZM7.71028 122.928L8.04357 123.87L9.5105 123.352L8.42951 122.233L7.71028 122.928ZM7.55128 105.136L8.28274 105.818L8.9608 105.09L8.23728 104.408L7.55128 105.136ZM26.7416 105.443L26.2245 104.587L25.2039 105.203L25.9889 106.101L26.7416 105.443ZM26.0865 123.149L25.3841 122.437L24.4807 123.329L25.5588 123.999L26.0865 123.149ZM24.8316 121.792H9.00718V123.792H24.8316V121.792ZM25.0728 121.801C24.993 121.795 24.9126 121.792 24.8316 121.792V123.792C24.8654 123.792 24.8987 123.793 24.9316 123.796L25.0728 121.801ZM25.6727 123.54C28.2882 121.176 29.934 117.753 29.934 113.948H27.934C27.934 117.165 26.5453 120.055 24.3317 122.056L25.6727 123.54ZM29.934 113.948C29.934 110.521 28.5994 107.404 26.4236 105.092L24.967 106.462C26.8076 108.419 27.934 111.051 27.934 113.948H29.934ZM25.512 106.784C25.599 106.784 25.6855 106.781 25.7712 106.774L25.6194 104.78C25.5841 104.783 25.5483 104.784 25.512 104.784V106.784ZM9.18439 106.784H25.512V104.784H9.18439V106.784ZM8.11382 106.611C8.45154 106.724 8.8119 106.784 9.18439 106.784V104.784C9.02978 104.784 8.88303 104.759 8.74678 104.714L8.11382 106.611ZM7.71113 104.967C5.46531 107.292 4.08203 110.459 4.08203 113.948H6.08203C6.08203 110.998 7.24941 108.324 9.14947 106.357L7.71113 104.967ZM4.08203 113.948C4.08203 117.75 5.72478 121.17 8.33609 123.533L9.67828 122.051C7.46816 120.05 6.08203 117.162 6.08203 113.948H4.08203ZM3.08203 113.948C3.08203 117.706 4.5719 121.118 6.99105 123.622L8.42951 122.233C6.35605 120.086 5.08203 117.167 5.08203 113.948H3.08203ZM6.81983 104.454C4.50175 106.941 3.08203 110.28 3.08203 113.948H5.08203C5.08203 110.805 6.29614 107.949 8.28274 105.818L6.81983 104.454ZM5.80329 103.403C5.80329 104.373 6.21272 105.248 6.86529 105.863L8.23728 104.408C7.9688 104.155 7.80329 103.799 7.80329 103.403H5.80329ZM9.18439 100.022C7.31706 100.022 5.80329 101.536 5.80329 103.403H7.80329C7.80329 102.64 8.42163 102.022 9.18439 102.022V100.022ZM17.008 100.022H9.18439V102.022H17.008V100.022ZM25.512 100.022H17.008V102.022H25.512V100.022ZM28.8931 103.403C28.8931 101.536 27.3793 100.022 25.512 100.022V102.022C26.2747 102.022 26.8931 102.64 26.8931 103.403H28.8931ZM27.2588 106.298C28.2361 105.708 28.8931 104.633 28.8931 103.403H26.8931C26.8931 103.904 26.6273 104.343 26.2245 104.587L27.2588 106.298ZM30.934 113.948C30.934 110.44 29.6355 107.233 27.4944 104.784L25.9889 106.101C27.8234 108.199 28.934 110.942 28.934 113.948H30.934ZM26.7889 123.861C29.3468 121.337 30.934 117.827 30.934 113.948H28.934C28.934 117.27 27.5768 120.274 25.3841 122.437L26.7889 123.861ZM28.2127 125.173C28.2127 123.959 27.5717 122.895 26.6142 122.3L25.5588 123.999C25.9535 124.244 26.2127 124.679 26.2127 125.173H28.2127ZM24.8316 128.554C26.699 128.554 28.2127 127.04 28.2127 125.173H26.2127C26.2127 125.936 25.5944 126.554 24.8316 126.554V128.554ZM8.50408 128.554H24.8316V126.554H8.50408V128.554ZM5.12298 125.173C5.12298 127.04 6.63675 128.554 8.50408 128.554V126.554C7.74132 126.554 7.12298 125.936 7.12298 125.173H5.12298ZM7.377 121.985C6.06521 122.448 5.12298 123.699 5.12298 125.173H7.12298C7.12298 124.573 7.50583 124.06 8.04357 123.87L7.377 121.985Z" fill="black" mask="url(#path-7-inside-2)"/>
</svg>
