<svg width="36" height="36" viewBox="0 0 36 36" fill="none" xmlns="http://www.w3.org/2000/svg">
<circle cx="18" cy="18" r="18" fill="#DA3B47"/>
<path d="M17.07 21.7C17.385 21.7 17.63 21.49 17.63 21.175L17.665 20.16C17.7 18.69 18.19 17.745 19.765 16.275C22.705 13.545 23.51 12.145 23.51 10.115C23.51 6.965 21.025 4.55 17.84 4.55C15.285 4.55 13.22 6.16 12.415 8.4C12.345 8.575 12.275 8.785 12.275 8.925C12.275 9.24 12.485 9.45 12.8 9.45C13.01 9.45 13.185 9.31 13.255 9.135C14.13 6.93 15.74 5.565 17.875 5.565C20.465 5.565 22.39 7.49 22.39 10.15C22.39 11.9 21.76 12.95 19.065 15.575C17.245 17.36 16.545 18.515 16.545 20.16V21.14C16.545 21.455 16.755 21.7 17.07 21.7ZM17.245 28.35C17.945 28.35 18.645 27.86 18.645 27.02C18.645 26.11 17.945 25.62 17.245 25.62C16.615 25.62 15.915 26.11 15.915 27.02C15.915 27.86 16.615 28.35 17.245 28.35Z" fill="white"/>
</svg>
