<svg width="127" height="158" viewBox="0 0 127 158" fill="none" xmlns="http://www.w3.org/2000/svg">
<path d="M13.1536 134.433C14.4033 133.838 20.6406 137.92 21.9382 141.288L14.7909 145.919L7.64354 150.55L10.3986 142.491L13.1536 134.433Z" fill="#EC673A"/>
<path d="M15.4387 131.505L13.1536 134.433M24.2234 138.36L21.9382 141.288M111.416 8.51953L120.2 15.375M114.868 22.2075L106.083 15.352M13.1536 134.433C14.4033 133.838 20.6406 137.92 21.9382 141.288M13.1536 134.433L10.3986 142.491M21.9382 141.288L14.7909 145.919M10.3986 142.491L7.64354 150.55L14.7909 145.919M10.3986 142.491L14.7909 145.919" stroke="black" stroke-width="2"/>
<path d="M114.493 2.94757C115.513 1.64139 117.398 1.40886 118.704 2.42819L124.35 6.83408C125.656 7.85342 125.888 9.73863 124.869 11.0448L23.8824 140.45C23.8824 140.45 23.1385 137.513 19.8371 134.937C16.5357 132.36 13.5066 132.352 13.5066 132.352L114.493 2.94757Z" fill="#EC673A"/>
</svg>
