<svg width="52" height="331" viewBox="0 0 52 331" fill="none" xmlns="http://www.w3.org/2000/svg">
<path d="M26.5 88L15.0001 89C11.669 154.026 27.3972 276.905 34.7726 330.443L40.2469 329.911C41.6283 282.053 39.5899 155.551 26.5 88Z" fill="#FE303F"/>
<path d="M19.8103 31.4896L13.3407 32.1178C5.67762 15.2796 14.5675 3.36468 14.5675 3.36468C14.5675 3.36468 26.13 13.796 19.8103 31.4896Z" fill="#5404A6"/>
<path d="M19.7451 30.3813C24.3314 17.3087 18.2731 6.05411 14.6707 2.06089C7.376 11.5017 10.4417 25.1995 12.8863 30.8683M19.7451 30.3813L12.8863 30.8683M19.7451 30.3813L23.2347 79.5281M23.2347 79.5281L16.3759 80.0151M23.2347 79.5281C23.8301 81.4939 24.4897 84.0948 25.1942 87.3559L16.1262 87.9997C16.1886 85.2718 16.2715 82.6082 16.3759 80.0151M16.3759 80.0151L12.8863 30.8683" stroke="black" stroke-width="2"/>
</svg>
