<svg width="250" height="150" viewBox="0 0 250 150" fill="none" xmlns="http://www.w3.org/2000/svg">
<path d="M133.234 68.3097C133.234 68.3097 113.382 58.3377 110.901 57.0912C108.419 55.8447 103.445 59.5611 100.34 59.5553C97.2355 59.5495 81.1062 51.4472 81.1062 51.4472L78.6132 56.4101C78.6132 56.4101 94.7425 64.5124 96.6007 66.9996C98.4589 69.4868 97.8241 76.9369 100.306 78.1834C102.787 79.4299 122.638 89.4019 122.638 89.4019M236.831 121.904C239.934 122.944 245.641 126.018 243.646 129.988L237.414 142.396C237.414 142.396 234.921 147.359 227.482 140.514" stroke="black" stroke-width="2"/>
<rect x="134.486" y="62.7236" width="119.408" height="33.3231" rx="2" transform="rotate(26.6718 134.486 62.7236)" fill="#5404A6"/>
<path d="M91.6553 55.1924L87.9158 62.6367" stroke="black" stroke-width="2"/>
<path d="M15.4069 1.78719C15.9027 0.800151 17.1048 0.40194 18.0919 0.897758L78.8562 31.4215L62.6965 63.5909L1.93223 33.0671C0.945199 32.5713 0.546989 31.3692 1.04281 30.3821L15.4069 1.78719Z" fill="#5404A6"/>
</svg>
