<svg width="76" height="209" viewBox="0 0 76 209" fill="none" xmlns="http://www.w3.org/2000/svg">
<path d="M39.4865 34.3638L40.5563 18.2595M59.4865 39.3638L59.8053 31.1224M40.5563 18.2595L41.4644 3.40532L60.6889 16.6697L59.8053 31.1224M40.5563 18.2595L59.8053 31.1224M10.6195 180.632C10.5564 188.284 14.7853 203.855 32.2057 204.92C49.626 205.986 54.3333 191.144 56.0095 183.59L50.5412 183.072L48.7266 182.961L35.4193 182.148L32.9998 182L10.6195 180.632Z" stroke="black" stroke-width="2"/>
<path d="M57.3361 182.712L9.61898 179.696C20.2352 168.027 29.0838 139.464 30.2682 123.512L35.606 32.3551L50.4339 28.6149L62.9008 37.4114L57.3361 182.712Z" fill="#EC673A"/>
</svg>
