<svg width="549" height="281" viewBox="0 0 549 281" fill="none" xmlns="http://www.w3.org/2000/svg">
<path d="M45.5483 0.645508V103H34.9355V10.2363H10.8799V103H0.26709V0.645508H45.5483ZM99.9204 22.822C76.8974 22.822 58.8654 40.693 58.8654 63.716C58.8654 86.417 76.8974 104.449 99.7594 104.61C122.782 104.61 140.975 86.417 140.975 63.716C140.975 40.854 122.782 22.822 99.9204 22.822ZM99.9204 34.253C116.02 34.253 128.256 46.972 128.256 63.877C128.256 80.46 115.859 93.179 99.7594 93.179C83.6594 93.179 71.5844 80.621 71.5844 63.877C71.4234 46.972 83.6594 34.253 99.9204 34.253ZM204.949 22.822C192.713 22.822 182.248 27.974 176.13 36.024V28.94C176.13 25.398 173.393 22.661 170.012 22.661C166.309 22.661 163.733 25.398 163.733 28.94V127.472C163.733 131.014 166.309 133.912 170.012 133.912C173.393 133.912 176.13 131.175 176.13 127.472V91.569C182.248 99.619 192.874 104.771 204.949 104.771C227.167 104.771 243.75 87.222 243.75 63.716C243.75 40.371 227.167 22.822 204.949 22.822ZM203.178 93.34C186.756 93.34 175.969 81.426 175.969 63.716C175.969 46.167 186.917 34.253 203.178 34.253C219.278 34.253 231.031 46.811 231.031 63.877C231.031 80.782 219.278 93.34 203.178 93.34ZM291.451 80.9097C291.451 80.2808 291.189 79.4946 290.665 78.5513C290.193 77.6079 289.512 76.5597 288.621 75.4067C287.782 74.2013 286.786 72.8911 285.633 71.4761C284.48 70.061 283.249 68.5674 281.938 66.9951C280.157 69.93 278.479 72.6291 276.907 75.0923C275.387 77.5031 274.051 79.8877 272.898 82.2461C271.797 84.5521 270.906 86.9367 270.225 89.3999C269.596 91.8107 269.282 94.4836 269.282 97.4185V102.686H258.59V97.4185C258.59 91.0246 259.691 85.4954 261.892 80.8311C263.517 77.3721 265.403 73.8869 267.552 70.3755C269.753 66.8117 272.164 62.8286 274.785 58.4263C272.688 55.8058 270.644 53.0806 268.653 50.2505C266.661 47.368 264.879 44.4069 263.307 41.3672C261.787 38.2751 260.556 35.1043 259.612 31.855C258.669 28.6056 258.197 25.2777 258.197 21.8711L258.276 16.604H302.142V27.1382H269.36C270.566 32.9556 273.134 38.5371 277.064 43.8828C279.475 47.1846 281.886 50.3553 284.297 53.395C286.76 56.4347 289.145 59.2648 291.451 61.8853V39.3232H302.142V102.686H291.451V80.9097ZM314.563 103V92.3872H319.201C319.358 89.3475 319.568 86.0457 319.83 82.4819C320.145 78.8657 320.538 75.1709 321.009 71.3975C321.481 67.624 322.084 63.8244 322.817 59.9985C323.551 56.1727 324.442 52.5041 325.49 48.9927C328.058 40.1356 331.858 32.5625 336.889 26.2734C341.868 20.0368 348.55 16.9185 356.936 16.9185H362.281V80.2021H351.668V28.396C348.734 29.549 346.166 31.4881 343.964 34.2134C341.816 36.9386 339.955 40.1618 338.383 43.8828C336.811 47.6038 335.5 51.6393 334.452 55.9893C333.404 60.3392 332.539 64.7153 331.858 69.1177C331.229 73.4676 330.757 77.6603 330.443 81.6958C330.128 85.7313 329.919 89.2951 329.814 92.3872H369.671V103H314.563ZM421.449 22.822C398.426 22.822 380.394 40.693 380.394 63.716C380.394 86.417 398.426 104.449 421.288 104.61C444.311 104.61 462.504 86.417 462.504 63.716C462.504 40.854 444.311 22.822 421.449 22.822ZM421.449 34.253C437.549 34.253 449.785 46.972 449.785 63.877C449.785 80.46 437.388 93.179 421.288 93.179C405.188 93.179 393.113 80.621 393.113 63.877C392.952 46.972 405.188 34.253 421.449 34.253ZM491.54 22.822C487.837 22.822 485.261 25.72 485.261 29.262V98.331C485.261 101.873 487.837 104.771 491.54 104.771C495.082 104.771 497.658 101.873 497.658 98.331V29.262C497.658 25.72 495.082 22.822 491.54 22.822ZM546.924 94.467L516.012 60.979L543.221 33.287C544.348 32.16 544.992 30.55 544.992 28.779C544.992 25.559 542.255 22.822 538.874 22.822C537.103 22.822 535.654 23.466 534.527 24.593L503.776 56.149C502.649 57.437 502.005 58.886 502.005 60.496C502.005 62.106 502.649 63.716 503.615 65.004L538.23 103C539.357 104.127 540.806 104.771 542.577 104.771C546.119 104.771 548.695 102.034 548.695 98.814C548.695 97.043 548.051 95.433 546.924 94.467ZM0.73877 256.202V214.458H11.3516V227.98C13.0286 227.037 14.5485 226.119 15.9111 225.229C17.3262 224.285 18.6626 223.342 19.9204 222.398C21.1782 221.455 22.4098 220.512 23.6152 219.568C24.8206 218.573 26.1047 217.524 27.4673 216.424C29.092 215.114 30.4284 213.62 31.4766 211.943C32.5247 210.266 33.0488 208.589 33.0488 206.912C33.0488 205.706 32.6034 204.841 31.7124 204.317C30.8215 203.793 29.3802 203.531 27.3887 203.531H0.73877V192.918H27.3887C29.8519 192.918 32.0793 193.259 34.0708 193.94C36.0623 194.622 37.7656 195.565 39.1807 196.771C40.5957 197.976 41.6701 199.47 42.4038 201.251C43.1899 202.981 43.583 204.894 43.583 206.99C43.583 210.24 42.7445 213.384 41.0674 216.424C39.4427 219.464 37.1629 222.189 34.228 224.6C33.0226 225.648 31.8958 226.565 30.8477 227.351C29.8519 228.085 28.9871 228.74 28.2534 229.316C29.6685 230.679 30.9787 232.015 32.1841 233.326C33.4419 234.636 34.6735 236.025 35.8789 237.492C37.0843 238.96 38.3159 240.532 39.5737 242.209C40.884 243.886 42.299 245.773 43.8188 247.869C46.2821 251.433 47.5137 255.39 47.5137 259.74C47.5137 262.36 47.0682 264.823 46.1772 267.129C45.2863 269.435 44.0809 271.479 42.561 273.261C41.0412 275.043 39.2593 276.458 37.2153 277.506C35.1714 278.502 32.9702 279 30.6118 279H0.73877V268.387H30.6118C31.4504 268.387 32.2365 268.151 32.9702 267.68C33.7563 267.208 34.4377 266.579 35.0142 265.793C35.6431 264.954 36.1147 264.011 36.4292 262.963C36.7961 261.915 36.9795 260.84 36.9795 259.74C36.9795 258.692 36.8223 257.67 36.5078 256.674C36.1934 255.678 35.7479 254.761 35.1714 253.922C32.7082 250.568 30.1663 247.319 27.5459 244.174C24.9779 240.977 22.2526 238.121 19.3701 235.605C18.3219 236.182 17.2214 236.785 16.0684 237.414C14.9678 238.042 13.8148 238.645 12.6094 239.222L11.3516 239.772V256.202H0.73877ZM111.819 203.61V279H101.207V192.997H139.177V203.61H111.819ZM169.05 192.997C171.775 194.098 174.264 196.011 176.518 198.736C178.824 201.409 180.789 204.658 182.414 208.484C184.039 212.257 185.297 216.502 186.188 221.219C187.078 225.936 187.524 230.862 187.524 235.999C187.524 241.239 187.052 246.218 186.109 250.935C185.218 255.652 183.96 259.923 182.335 263.749C180.711 267.575 178.772 270.824 176.518 273.497C174.264 276.118 171.775 277.952 169.05 279V265.95C171.618 262.596 173.557 258.351 174.867 253.215C176.23 248.026 176.911 242.288 176.911 235.999C176.911 229.709 176.256 224.049 174.946 219.018C173.636 213.987 171.67 209.663 169.05 206.047V192.997ZM158.437 279C155.607 277.899 153.039 275.986 150.733 273.261C148.427 270.536 146.462 267.26 144.837 263.435C143.265 259.609 142.033 255.337 141.142 250.621C140.304 245.904 139.884 241.03 139.884 235.999C139.884 230.967 140.304 226.119 141.142 221.455C142.033 216.738 143.265 212.467 144.837 208.641C146.462 204.763 148.401 201.461 150.654 198.736C152.96 196.011 155.555 194.098 158.437 192.997V206.047C157.179 207.514 156.052 209.322 155.057 211.471C154.061 213.62 153.222 216.005 152.541 218.625C151.912 221.193 151.414 223.971 151.047 226.958C150.681 229.893 150.497 232.906 150.497 235.999C150.497 241.082 150.89 245.668 151.676 249.756C152.515 253.844 153.746 257.565 155.371 260.919C156.419 263.277 157.441 264.954 158.437 265.95V279ZM261.699 200.593H222.093C218.39 200.593 215.653 203.491 215.653 207.033V213.312C215.653 247.766 210.34 263.544 197.299 268.857C194.401 269.984 192.791 271.916 192.791 274.331C192.791 277.39 195.367 279.966 198.587 279.966C200.358 279.966 201.968 279.483 203.9 278.678C220.161 271.755 228.05 252.274 228.05 219.752V211.702H255.903V274.331C255.903 277.873 258.479 280.771 262.021 280.771C265.402 280.771 268.139 277.873 268.139 274.331V207.033C268.139 203.491 265.241 200.593 261.699 200.593ZM331.672 198.822C308.649 198.822 290.617 216.693 290.617 239.716C290.617 262.417 308.649 280.449 331.511 280.61C354.534 280.61 372.727 262.417 372.727 239.716C372.727 216.854 354.534 198.822 331.672 198.822ZM331.672 210.253C347.772 210.253 360.008 222.972 360.008 239.877C360.008 256.46 347.611 269.179 331.511 269.179C315.411 269.179 303.336 256.621 303.336 239.877C303.175 222.972 315.411 210.253 331.672 210.253ZM386.573 256.202V214.458H397.186V227.98C398.863 227.037 400.382 226.119 401.745 225.229C403.16 224.285 404.497 223.342 405.754 222.398C407.012 221.455 408.244 220.512 409.449 219.568C410.655 218.573 411.939 217.524 413.301 216.424C414.926 215.114 416.262 213.62 417.311 211.943C418.359 210.266 418.883 208.589 418.883 206.912C418.883 205.706 418.437 204.841 417.546 204.317C416.655 203.793 415.214 203.531 413.223 203.531H386.573V192.918H413.223C415.686 192.918 417.913 193.259 419.905 193.94C421.896 194.622 423.6 195.565 425.015 196.771C426.43 197.976 427.504 199.47 428.238 201.251C429.024 202.981 429.417 204.894 429.417 206.99C429.417 210.24 428.578 213.384 426.901 216.424C425.277 219.464 422.997 222.189 420.062 224.6C418.857 225.648 417.73 226.565 416.682 227.351C415.686 228.085 414.821 228.74 414.087 229.316C415.502 230.679 416.813 232.015 418.018 233.326C419.276 234.636 420.507 236.025 421.713 237.492C422.918 238.96 424.15 240.532 425.408 242.209C426.718 243.886 428.133 245.773 429.653 247.869C432.116 251.433 433.348 255.39 433.348 259.74C433.348 262.36 432.902 264.823 432.011 267.129C431.12 269.435 429.915 271.479 428.395 273.261C426.875 275.043 425.093 276.458 423.049 277.506C421.005 278.502 418.804 279 416.446 279H386.573V268.387H416.446C417.284 268.387 418.07 268.151 418.804 267.68C419.59 267.208 420.272 266.579 420.848 265.793C421.477 264.954 421.949 264.011 422.263 262.963C422.63 261.915 422.813 260.84 422.813 259.74C422.813 258.692 422.656 257.67 422.342 256.674C422.027 255.678 421.582 254.761 421.005 253.922C418.542 250.568 416 247.319 413.38 244.174C410.812 240.977 408.087 238.121 405.204 235.605C404.156 236.182 403.055 236.785 401.902 237.414C400.802 238.042 399.649 238.645 398.443 239.222L397.186 239.772V256.202H386.573ZM484.788 198.822C462.409 198.822 444.699 216.854 444.699 239.877C444.699 263.222 462.409 280.771 486.237 280.771C496.38 280.771 505.718 277.551 513.446 271.111C515.7 269.018 516.505 267.569 516.505 265.476C516.505 262.256 514.09 260.002 511.031 260.002C509.582 260.002 508.133 260.646 506.845 261.773C501.21 266.603 494.126 269.34 486.398 269.34C470.62 269.34 459.189 259.036 457.579 243.58H512.963C517.793 243.58 520.53 241.004 520.53 235.852V235.047C520.53 213.956 505.557 198.822 484.788 198.822ZM484.466 210.092C498.151 210.092 507.489 219.43 507.811 232.632H458.062C460.799 219.269 471.103 210.092 484.466 210.092Z" fill="#FE303F"/>
</svg>
