<svg width="661" height="270" viewBox="0 0 661 270" fill="none" xmlns="http://www.w3.org/2000/svg">
<path d="M6.93 108.771C10.472 108.771 13.209 105.873 13.209 102.17V12.01H68.593V102.17C68.593 105.873 71.33 108.771 74.872 108.771C78.575 108.771 81.151 105.873 81.151 102.17V7.341C81.151 3.638 78.414 0.739996 74.55 0.739996H7.252C3.388 0.739996 0.651001 3.638 0.651001 7.341V102.17C0.651001 105.873 3.227 108.771 6.93 108.771ZM144.063 26.822C121.04 26.822 103.008 44.693 103.008 67.716C103.008 90.417 121.04 108.449 143.902 108.61C166.925 108.61 185.118 90.417 185.118 67.716C185.118 44.854 166.925 26.822 144.063 26.822ZM144.063 38.253C160.163 38.253 172.399 50.972 172.399 67.877C172.399 84.46 160.002 97.179 143.902 97.179C127.802 97.179 115.727 84.621 115.727 67.877C115.566 50.972 127.802 38.253 144.063 38.253ZM249.092 26.822C236.856 26.822 226.391 31.974 220.273 40.024V32.94C220.273 29.398 217.536 26.661 214.155 26.661C210.452 26.661 207.876 29.398 207.876 32.94V131.472C207.876 135.014 210.452 137.912 214.155 137.912C217.536 137.912 220.273 135.175 220.273 131.472V95.569C226.391 103.619 237.017 108.771 249.092 108.771C271.31 108.771 287.893 91.222 287.893 67.716C287.893 44.371 271.31 26.822 249.092 26.822ZM247.321 97.34C230.899 97.34 220.112 85.426 220.112 67.716C220.112 50.167 231.06 38.253 247.321 38.253C263.421 38.253 275.174 50.811 275.174 67.877C275.174 84.782 263.421 97.34 247.321 97.34ZM364.498 28.593H336.484C318.291 28.593 306.377 39.219 306.377 55.319C306.377 66.106 311.851 74.478 321.189 78.664L303.157 98.628C302.03 99.594 301.386 101.043 301.386 102.653C301.386 106.034 304.123 108.771 307.504 108.771C309.275 108.771 310.885 108.127 312.334 106.517L333.586 81.562C334.552 81.723 335.518 81.723 336.484 81.723H358.541V102.331C358.541 105.873 361.278 108.771 364.82 108.771C368.362 108.771 370.938 105.873 370.938 102.331V35.033C370.938 31.491 368.201 28.593 364.498 28.593ZM358.541 70.775H337.45C326.18 70.775 319.096 64.657 319.096 55.158C319.096 45.498 326.18 39.702 337.45 39.702H358.541V70.775ZM472.614 96.052H466.013V35.033C466.013 31.491 463.115 28.593 459.573 28.593H421.899C418.357 28.593 415.459 31.33 415.459 34.872V35.033C415.459 66.911 410.79 85.265 400.003 96.052H398.393C394.851 96.052 391.953 98.789 391.953 102.492V125.032C391.953 128.574 394.69 131.472 398.232 131.472C401.613 131.472 404.35 128.735 404.35 125.032V107H466.657V125.032C466.657 128.574 469.233 131.472 472.936 131.472C476.317 131.472 479.054 128.735 479.054 125.032V102.492C479.054 98.789 476.156 96.052 472.614 96.052ZM427.856 39.702H453.616V96.052H414.493C423.992 85.748 427.695 69.004 427.856 39.702ZM533.042 26.822C510.019 26.822 491.987 44.693 491.987 67.716C491.987 90.417 510.019 108.449 532.881 108.61C555.904 108.61 574.097 90.417 574.097 67.716C574.097 44.854 555.904 26.822 533.042 26.822ZM533.042 38.253C549.142 38.253 561.378 50.972 561.378 67.877C561.378 84.46 548.981 97.179 532.881 97.179C516.781 97.179 504.706 84.621 504.706 67.877C504.545 50.972 516.781 38.253 533.042 38.253ZM603.133 26.822C599.43 26.822 596.854 29.72 596.854 33.262V102.331C596.854 105.873 599.43 108.771 603.133 108.771C606.675 108.771 609.251 105.873 609.251 102.331V33.262C609.251 29.72 606.675 26.822 603.133 26.822ZM658.517 98.467L627.605 64.979L654.814 37.287C655.941 36.16 656.585 34.55 656.585 32.779C656.585 29.559 653.848 26.822 650.467 26.822C648.696 26.822 647.247 27.466 646.12 28.593L615.369 60.149C614.242 61.437 613.598 62.886 613.598 64.496C613.598 66.106 614.242 67.716 615.208 69.004L649.823 107C650.95 108.127 652.399 108.771 654.17 108.771C657.712 108.771 660.288 106.034 660.288 102.814C660.288 101.043 659.644 99.433 658.517 98.467ZM59.416 187.822C55.713 187.822 53.298 190.559 53.298 194.101V220.827H13.048V194.101C13.048 190.559 10.311 187.822 6.93 187.822C3.227 187.822 0.651001 190.559 0.651001 194.101V263.492C0.651001 267.034 3.227 269.771 6.93 269.771C10.472 269.771 13.048 267.034 13.048 263.492V231.775H53.298V263.492C53.298 267.034 55.874 269.771 59.416 269.771C62.797 269.771 65.534 267.034 65.534 263.492V194.101C65.534 190.559 62.797 187.822 59.416 187.822ZM122.039 187.822C110.608 187.822 100.143 192.169 93.3807 200.058C91.7707 201.829 91.1267 203.6 91.1267 205.371C91.1267 207.947 93.7027 210.523 96.7617 210.523C98.3717 210.523 99.9817 209.718 101.592 208.108C107.066 202.312 113.667 199.253 121.234 199.253C133.309 199.253 140.232 206.337 140.232 219.056V225.818H115.438C98.3717 225.818 87.2627 234.512 87.2627 247.714C87.2627 260.916 98.2107 269.771 114.633 269.771C125.581 269.771 134.436 265.746 140.232 258.823V263.331C140.232 266.873 142.969 269.771 146.511 269.771C149.892 269.771 152.629 267.034 152.629 263.331V219.7C152.629 199.736 141.037 187.822 122.039 187.822ZM116.243 259.467C106.422 259.467 99.9817 254.637 99.9817 247.231C99.9817 239.825 105.778 235.961 116.887 235.961H140.232V237.893C140.232 249.807 129.445 259.467 116.243 259.467ZM259.467 269.771C273.635 269.771 284.744 263.009 291.345 253.51C292.311 252.061 292.472 251.095 292.472 250.129C292.472 246.909 289.896 244.494 286.676 244.494C285.388 244.494 283.939 244.816 282.329 246.587C277.016 253.188 269.771 258.34 259.628 258.34C243.367 258.34 231.131 245.621 231.131 228.716C231.131 211.972 243.528 199.253 259.628 199.253C269.771 199.253 277.016 204.405 282.329 211.006C283.939 212.938 285.388 213.26 286.837 213.26C289.896 213.26 292.472 210.684 292.472 207.625C292.472 206.659 292.311 205.693 291.345 204.244C284.905 194.584 273.635 187.822 259.467 187.822C236.605 187.822 218.412 205.854 218.412 228.716C218.412 251.578 236.605 269.771 259.467 269.771ZM336.39 269.771C339.771 269.771 342.508 266.873 342.508 263.331V200.702H365.37C368.59 200.702 371.005 198.287 371.005 195.067C371.005 192.008 368.59 189.593 365.37 189.593H307.41C304.19 189.593 301.614 192.008 301.614 195.067C301.614 198.287 304.19 200.702 307.41 200.702H330.272V263.331C330.272 266.873 333.009 269.771 336.39 269.771ZM422.354 187.822C399.331 187.822 381.299 205.693 381.299 228.716C381.299 251.417 399.331 269.449 422.193 269.61C445.216 269.61 463.409 251.417 463.409 228.716C463.409 205.854 445.216 187.822 422.354 187.822ZM422.354 199.253C438.454 199.253 450.69 211.972 450.69 228.877C450.69 245.46 438.293 258.179 422.193 258.179C406.093 258.179 394.018 245.621 394.018 228.877C393.857 211.972 406.093 199.253 422.354 199.253ZM540.424 189.593H500.818C497.115 189.593 494.378 192.491 494.378 196.033V202.312C494.378 236.766 489.065 252.544 476.024 257.857C473.126 258.984 471.516 260.916 471.516 263.331C471.516 266.39 474.092 268.966 477.312 268.966C479.083 268.966 480.693 268.483 482.625 267.678C498.886 260.755 506.775 241.274 506.775 208.752V200.702H534.628V263.331C534.628 266.873 537.204 269.771 540.746 269.771C544.127 269.771 546.864 266.873 546.864 263.331V196.033C546.864 192.491 543.966 189.593 540.424 189.593ZM609.431 187.822C587.052 187.822 569.342 205.854 569.342 228.877C569.342 252.222 587.052 269.771 610.88 269.771C621.023 269.771 630.361 266.551 638.089 260.111C640.343 258.018 641.148 256.569 641.148 254.476C641.148 251.256 638.733 249.002 635.674 249.002C634.225 249.002 632.776 249.646 631.488 250.773C625.853 255.603 618.769 258.34 611.041 258.34C595.263 258.34 583.832 248.036 582.222 232.58H637.606C642.436 232.58 645.173 230.004 645.173 224.852V224.047C645.173 202.956 630.2 187.822 609.431 187.822ZM609.109 199.092C622.794 199.092 632.132 208.43 632.454 221.632H582.705C585.442 208.269 595.746 199.092 609.109 199.092Z" fill="#1D1E23"/>
</svg>
