<svg width="840" height="148" viewBox="0 0 840 148" fill="none" xmlns="http://www.w3.org/2000/svg">
<path d="M0.50293 123V42.1855H11.1157V86.9165C13.6313 84.6629 16.1732 82.0163 18.7412 78.9766C21.3092 75.9368 23.8773 72.6875 26.4453 69.2285C29.0133 65.7695 31.529 62.1795 33.9922 58.4585C36.4554 54.7375 38.7876 51.0688 40.9888 47.4526C43.1899 43.9412 44.2905 40.2202 44.2905 36.2896C44.2905 34.6125 44.0285 33.3809 43.5044 32.5947C43.0327 31.7562 42.0369 31.3369 40.5171 31.3369H0.26709V20.6455H40.5171C42.561 20.6455 44.4478 21.0124 46.1772 21.7461C47.9591 22.4274 49.479 23.4494 50.7368 24.812C52.047 26.1222 53.069 27.7469 53.8027 29.686C54.5365 31.6252 54.9033 33.8263 54.9033 36.2896C54.9033 39.2769 54.484 42.1593 53.6455 44.937C52.807 47.6623 51.5754 50.3613 49.9507 53.0342C47.5399 56.9648 44.9718 61.0527 42.2466 65.2979C39.5213 69.4906 36.6126 73.6047 33.5205 77.6401C30.4808 81.6756 27.2314 85.5539 23.7725 89.2749C20.3659 92.9435 16.7497 96.2191 12.9238 99.1016L11.1157 100.517V123H0.50293ZM102.109 42.822C90.678 42.822 80.213 47.169 73.451 55.058C71.841 56.829 71.197 58.6 71.197 60.371C71.197 62.947 73.773 65.523 76.832 65.523C78.442 65.523 80.052 64.718 81.662 63.108C87.136 57.312 93.737 54.253 101.304 54.253C113.379 54.253 120.302 61.337 120.302 74.056V80.818H95.508C78.442 80.818 67.333 89.512 67.333 102.714C67.333 115.916 78.281 124.771 94.703 124.771C105.651 124.771 114.506 120.746 120.302 113.823V118.331C120.302 121.873 123.039 124.771 126.581 124.771C129.962 124.771 132.699 122.034 132.699 118.331V74.7C132.699 54.736 121.107 42.822 102.109 42.822ZM96.313 114.467C86.492 114.467 80.052 109.637 80.052 102.231C80.052 94.825 85.848 90.961 96.957 90.961H120.302V92.893C120.302 104.807 109.515 114.467 96.313 114.467ZM218.725 42.822C215.022 42.822 212.607 45.559 212.607 49.101V75.827H172.357V49.101C172.357 45.559 169.62 42.822 166.239 42.822C162.536 42.822 159.96 45.559 159.96 49.101V118.492C159.96 122.034 162.536 124.771 166.239 124.771C169.781 124.771 172.357 122.034 172.357 118.492V86.775H212.607V118.492C212.607 122.034 215.183 124.771 218.725 124.771C222.106 124.771 224.843 122.034 224.843 118.492V49.101C224.843 45.559 222.106 42.822 218.725 42.822ZM281.83 11.749C284.084 11.749 285.533 12.071 286.982 12.071C290.363 12.071 292.456 10.139 292.456 7.24099C292.456 4.18199 291.007 2.411 288.109 1.606C285.855 0.80099 283.279 0.478994 280.22 0.478994C264.442 0.478994 255.104 9.978 255.104 25.917V44.593H248.02C244.8 44.593 242.385 47.008 242.385 50.067C242.385 53.287 244.8 55.702 248.02 55.702H255.104V118.331C255.104 121.873 257.841 124.771 261.383 124.771C264.925 124.771 267.501 122.034 267.501 118.331V55.702H282.957C286.177 55.702 288.592 53.287 288.592 50.067C288.592 47.008 286.177 44.593 282.957 44.593H267.501V26.722C267.501 16.901 272.492 11.749 281.83 11.749ZM338.782 43.949C328.8 43.949 320.106 48.135 314.31 55.058V49.262C314.31 45.72 311.573 42.822 308.192 42.822C304.489 42.822 301.913 45.72 301.913 49.262V118.331C301.913 121.873 304.489 124.771 308.192 124.771C311.573 124.771 314.31 122.034 314.31 118.331V78.725C314.31 65.362 324.614 55.541 338.782 55.541C342.324 55.541 345.061 53.287 345.061 49.745C345.061 46.364 342.324 43.949 338.782 43.949ZM394.091 42.822C371.068 42.822 353.036 60.693 353.036 83.716C353.036 106.417 371.068 124.449 393.93 124.61C416.953 124.61 435.146 106.417 435.146 83.716C435.146 60.854 416.953 42.822 394.091 42.822ZM394.091 54.253C410.191 54.253 422.427 66.972 422.427 83.877C422.427 100.46 410.03 113.179 393.93 113.179C377.83 113.179 365.755 100.621 365.755 83.877C365.594 66.972 377.83 54.253 394.091 54.253ZM542.912 42.822C531.642 42.822 521.821 47.974 516.025 56.346C511.517 47.652 502.984 42.822 491.875 42.822C482.537 42.822 474.809 46.203 469.335 51.838V49.262C469.335 45.72 466.598 42.822 463.217 42.822C459.514 42.822 456.938 45.72 456.938 49.262V118.331C456.938 121.873 459.514 124.771 463.217 124.771C466.598 124.771 469.335 122.034 469.335 118.331V75.344C469.335 62.947 477.385 54.253 489.299 54.253C500.569 54.253 507.975 62.625 507.975 75.344V118.331C507.975 121.873 510.551 124.771 514.254 124.771C517.635 124.771 520.372 122.034 520.372 118.331V74.217C520.372 62.947 528.905 54.253 540.497 54.253C551.767 54.253 559.012 62.464 559.012 75.344V118.331C559.012 121.873 561.588 124.771 565.291 124.771C568.672 124.771 571.409 122.034 571.409 118.331V73.734C571.409 54.736 560.461 42.822 542.912 42.822ZM671.072 112.052H664.471V51.033C664.471 47.491 661.573 44.593 658.031 44.593H620.357C616.815 44.593 613.917 47.33 613.917 50.872V51.033C613.917 82.911 609.248 101.265 598.461 112.052H596.851C593.309 112.052 590.411 114.789 590.411 118.492V141.032C590.411 144.574 593.148 147.472 596.69 147.472C600.071 147.472 602.808 144.735 602.808 141.032V123H665.115V141.032C665.115 144.574 667.691 147.472 671.394 147.472C674.775 147.472 677.512 144.735 677.512 141.032V118.492C677.512 114.789 674.614 112.052 671.072 112.052ZM626.314 55.702H652.074V112.052H612.951C622.45 101.748 626.153 85.004 626.314 55.702ZM718.399 36.9971C721.125 38.0977 723.614 40.0106 725.868 42.7358C728.174 45.4087 730.139 48.658 731.764 52.4839C733.388 56.2573 734.646 60.5024 735.537 65.2192C736.428 69.936 736.874 74.8625 736.874 79.9985C736.874 85.2394 736.402 90.2183 735.458 94.9351C734.568 99.6519 733.31 103.923 731.685 107.749C730.06 111.575 728.121 114.824 725.868 117.497C723.614 120.118 721.125 121.952 718.399 123V109.95C720.967 106.596 722.907 102.351 724.217 97.2148C725.579 92.0264 726.261 86.2876 726.261 79.9985C726.261 73.7095 725.606 68.0493 724.295 63.0181C722.985 57.9868 721.02 53.6631 718.399 50.0469V36.9971ZM707.787 123C704.957 121.899 702.389 119.986 700.083 117.261C697.777 114.536 695.811 111.26 694.187 107.435C692.614 103.609 691.383 99.3374 690.492 94.6206C689.653 89.9038 689.234 85.0298 689.234 79.9985C689.234 74.9673 689.653 70.1195 690.492 65.4551C691.383 60.7383 692.614 56.467 694.187 52.6411C695.811 48.7629 697.75 45.4611 700.004 42.7358C702.31 40.0106 704.904 38.0977 707.787 36.9971V50.0469C706.529 51.5143 705.402 53.3224 704.406 55.4712C703.41 57.62 702.572 60.0046 701.891 62.625C701.262 65.193 700.764 67.9707 700.397 70.958C700.03 73.8929 699.847 76.9064 699.847 79.9985C699.847 85.0822 700.24 89.668 701.026 93.7559C701.864 97.8438 703.096 101.565 704.721 104.919C705.769 107.277 706.791 108.954 707.787 109.95V123ZM763.071 124.771C766.613 124.771 769.189 121.873 769.189 118.331V67.777L793.5 99.333C794.788 100.943 796.237 101.909 798.33 101.909C800.423 101.909 802.033 100.943 803.16 99.333L827.471 67.777V118.331C827.471 121.873 830.047 124.771 833.589 124.771C837.292 124.771 839.868 121.873 839.868 118.331V49.262C839.868 45.72 837.292 42.822 833.589 42.822C831.657 42.822 829.886 43.788 828.759 45.237L798.33 86.453L767.901 45.237C766.774 43.788 765.003 42.822 763.071 42.822C759.368 42.822 756.792 45.72 756.792 49.262V118.331C756.792 121.873 759.368 124.771 763.071 124.771Z" fill="white"/>
</svg>
